<?xml version="1.0" standalone="no"?>
<!DOCTYPE svg PUBLIC "-//W3C//DTD SVG 20010904//EN"
 "http://www.w3.org/TR/2001/REC-SVG-20010904/DTD/svg10.dtd">
<svg version="1.0" xmlns="http://www.w3.org/2000/svg"
 width="32.000000pt" height="32.000000pt" viewBox="0 0 32.000000 32.000000"
 preserveAspectRatio="xMidYMid meet">

<g transform="translate(0.000000,32.000000) scale(0.100000,-0.100000)"
fill="#000000" stroke="none">
<path d="M14 277 c-3 -8 -4 -54 -2 -103 l3 -89 145 0 c143 0 145 0 148 23 2
12 -1 22 -7 22 -6 0 -11 -4 -11 -10 0 -6 -50 -10 -130 -10 l-130 0 0 80 0 80
55 0 c30 0 55 5 55 10 0 16 -120 13 -126 -3z"/>
<path d="M67 233 c-4 -3 -7 -11 -7 -17 0 -6 5 -5 12 2 6 6 9 14 7 17 -3 3 -9
2 -12 -2z"/>
<path d="M127 63 c-15 -15 -5 -23 28 -23 24 0 35 5 35 15 0 15 -50 22 -63 8z"/>
</g>
</svg>
